<svg width="150" height="48" viewBox="0 0 150 48" fill="none" xmlns="http://www.w3.org/2000/svg">
<g clip-path="url(#clip0_2_7)">
<path d="M26.5187 9.65134C26.5187 8.3839 26.2862 7.12887 25.8343 5.95791C25.3823 4.78695 24.72 3.72298 23.885 2.82677C23.0501 1.93055 22.0588 1.21964 20.9679 0.734608C19.8769 0.24958 18.7076 -6.10906e-05 17.5267 -6.10352e-05C16.3459 -6.09798e-05 15.1766 0.24958 14.0857 0.734608C12.9948 1.21964 12.0034 1.93055 11.1685 2.82677C10.3335 3.72298 9.67109 4.78695 9.21924 5.95791C8.76735 7.12887 8.53476 8.3839 8.53476 9.65134H12.1249C12.1249 8.88995 12.2647 8.13601 12.5362 7.43258C12.8077 6.72914 13.2055 6.08999 13.7071 5.5516C14.2087 5.01322 14.8042 4.58615 15.4596 4.29478C16.1149 4.0034 16.8174 3.85344 17.5267 3.85344C18.2361 3.85344 18.9386 4.0034 19.5939 4.29477C20.2493 4.58615 20.8448 5.01322 21.3464 5.5516C21.848 6.08999 22.2458 6.72914 22.5173 7.43258C22.7888 8.13601 22.9285 8.88995 22.9285 9.65134H26.5187Z" fill="#121212"/>
<path d="M29.5669 9.16064H5.79144C2.59292 9.16064 0 11.9437 0 15.3768V40.8958C0 44.3289 2.59292 47.1119 5.79144 47.1119H29.5669C32.7654 47.1119 35.3584 44.3289 35.3584 40.8958V15.3768C35.3584 11.9437 32.7654 9.16064 29.5669 9.16064Z" fill="#FF5634"/>
<path d="M29.4144 27.9727C29.4144 29.6268 29.1109 31.2648 28.5211 32.793C27.9314 34.3212 27.067 35.7097 25.9773 36.8794C24.8875 38.049 23.5939 38.9768 22.1701 39.6098C20.7463 40.2428 19.2202 40.5686 17.6791 40.5686C16.138 40.5686 14.612 40.2428 13.1883 39.6098C11.7645 38.9768 10.4707 38.049 9.38106 36.8794C8.29131 35.7097 7.4269 34.3212 6.83715 32.793C6.24739 31.2648 5.94385 29.6268 5.94385 27.9727H10.6294C10.6294 28.9664 10.8117 29.9504 11.1661 30.8684C11.5203 31.7864 12.0396 32.6206 12.6942 33.3232C13.3489 34.0259 14.126 34.5832 14.9814 34.9635C15.8366 35.3438 16.7533 35.5395 17.6791 35.5395C18.6049 35.5395 19.5217 35.3438 20.377 34.9635C21.2323 34.5832 22.0095 34.0259 22.6641 33.3232C23.3188 32.6206 23.838 31.7864 24.1923 30.8684C24.5466 29.9504 24.7289 28.9664 24.7289 27.9727H29.4144Z" fill="white"/>
<path d="M51 34.1741H56.8908C62.4224 34.1741 66.3496 30.4986 66.3496 25.3324C66.3496 20.1662 62.4224 16.5165 56.8908 16.5165H51V34.1741ZM54.5201 30.7299V19.9606H57.3457C60.4827 19.9606 62.7098 22.1967 62.7098 25.3324C62.7098 28.4938 60.4827 30.7299 57.3457 30.7299H54.5201ZM74.8205 31.1669C73.3597 31.1669 72.2821 30.1902 71.8751 28.7508H80.807C80.807 23.7389 78.5321 20.5775 74.6528 20.5775C71.0369 20.5775 68.2831 23.4818 68.2831 27.4914C68.2831 31.5781 71.1566 34.4825 74.8444 34.4825C76.6643 34.4825 78.7956 33.66 79.8971 32.4263L77.67 29.9846C76.9996 30.6785 75.8023 31.1669 74.8205 31.1669ZM74.7965 23.8931C76.2093 23.8931 77.1193 24.7413 77.4545 26.0521H71.9229C72.3779 24.7156 73.4794 23.8931 74.7965 23.8931ZM83.1723 34.1741H86.6684V16.208H83.1723V34.1741ZM91.4682 19.061C92.4979 19.061 93.3361 18.1357 93.3361 17.0048C93.3361 15.951 92.4979 15 91.4682 15C90.3906 15 89.5525 15.951 89.5525 17.0048C89.5525 18.1357 90.3906 19.061 91.4682 19.061ZM89.6962 34.1741H93.1924V20.8859H89.6962V34.1741ZM100.387 34.1741H103.62L108.912 20.8859H105.273L102.016 29.856L98.6871 20.8859H95.0233L100.387 34.1741ZM115.838 31.1669C114.377 31.1669 113.3 30.1902 112.893 28.7508H121.825C121.825 23.7389 119.55 20.5775 115.67 20.5775C112.054 20.5775 109.3 23.4818 109.3 27.4914C109.3 31.5781 112.175 34.4825 115.862 34.4825C117.682 34.4825 119.813 33.66 120.915 32.4263L118.688 29.9846C118.017 30.6785 116.82 31.1669 115.838 31.1669ZM115.814 23.8931C117.227 23.8931 118.136 24.7413 118.472 26.0521H112.94C113.395 24.7156 114.497 23.8931 115.814 23.8931ZM127.686 23.3533V20.8859H124.189V34.1741H127.686V27.8255C127.686 25.3324 129.338 23.7389 131.924 23.7389V20.5775C130.033 20.5775 128.5 21.6313 127.686 23.3533Z" fill="#121212"/>
</g>
<defs>
<clipPath id="clip0_2_7">
<rect width="150" height="48" fill="white"/>
</clipPath>
</defs>
</svg>
